<svg width="192" height="192" viewBox="0 0 192 192" fill="none" xmlns="http://www.w3.org/2000/svg">
<rect width="192" height="192" fill="#09090B"/>
<path d="M60.858 105.992C60.0047 107.144 58.9167 108.04 57.594 108.68C56.2713 109.277 54.8633 109.576 53.37 109.576C50.9807 109.576 48.954 109 47.29 107.848C45.6687 106.696 44.4313 105.16 43.578 103.24C42.7673 101.32 42.362 99.208 42.362 96.904C42.362 94.5147 42.81 92.3813 43.706 90.504C44.602 88.584 45.882 87.0693 47.546 85.96C49.2527 84.8507 51.2367 84.296 53.498 84.296C55.3753 84.296 56.954 84.6373 58.234 85.32C59.5567 86.0027 60.602 86.8133 61.37 87.752C61.7113 86.7707 62.266 86.0667 63.034 85.64C63.8447 85.1707 64.8047 84.936 65.914 84.936H66.234C66.7033 84.936 66.938 85.192 66.938 85.704V108.296C66.938 108.765 66.7033 109 66.234 109H61.498C61.0713 109 60.858 108.765 60.858 108.296V105.992ZM54.714 103.816C55.5247 103.816 56.3993 103.645 57.338 103.304C58.3193 102.92 59.1513 102.237 59.834 101.256C60.5167 100.275 60.858 98.824 60.858 96.904C60.858 94.984 60.5167 93.5547 59.834 92.616C59.1513 91.6347 58.3407 90.9947 57.402 90.696C56.4633 90.3547 55.5887 90.184 54.778 90.184C53.9247 90.184 53.0073 90.376 52.026 90.76C51.0873 91.144 50.2767 91.8267 49.594 92.808C48.954 93.7893 48.634 95.1547 48.634 96.904C48.634 98.7387 48.9753 100.168 49.658 101.192C50.3833 102.173 51.2153 102.856 52.154 103.24C53.0927 103.624 53.946 103.816 54.714 103.816ZM72.307 102.024C73.2883 102.835 74.3123 103.475 75.379 103.944C76.4883 104.413 77.811 104.648 79.347 104.648C81.9497 104.648 83.251 103.816 83.251 102.152C83.251 101.427 82.8457 100.851 82.035 100.424C81.267 99.9973 80.307 99.592 79.155 99.208C78.0457 98.824 76.915 98.3547 75.763 97.8C74.611 97.2453 73.6297 96.52 72.819 95.624C72.051 94.6853 71.667 93.4267 71.667 91.848C71.667 90.0987 72.0937 88.6907 72.947 87.624C73.843 86.5147 74.995 85.704 76.403 85.192C77.8537 84.68 79.3897 84.424 81.011 84.424C83.0163 84.424 84.6803 84.744 86.003 85.384C87.1123 85.8533 87.8377 86.4293 88.179 87.112C88.5203 87.752 88.5203 88.6693 88.179 89.864L87.987 90.568C87.859 90.9093 87.6883 91.08 87.475 91.08C87.347 91.08 87.2403 91.0587 87.155 91.016C87.0697 90.9307 86.9417 90.8667 86.771 90.824C84.7657 89.8427 82.803 89.352 80.883 89.352C80.0297 89.352 79.3043 89.5227 78.707 89.864C78.1097 90.2053 77.811 90.7387 77.811 91.464C77.811 92.1893 78.195 92.7867 78.963 93.256C79.7737 93.6827 80.7337 94.088 81.843 94.472C82.995 94.856 84.147 95.3253 85.299 95.88C86.451 96.4347 87.411 97.16 88.179 98.056C88.9897 98.952 89.395 100.147 89.395 101.64C89.395 104.029 88.5417 105.971 86.835 107.464C85.1283 108.915 82.867 109.64 80.051 109.64C78.259 109.64 76.6803 109.341 75.315 108.744C73.9923 108.104 72.947 107.272 72.179 106.248C71.411 105.224 71.027 104.157 71.027 103.048C71.027 102.195 71.283 101.768 71.795 101.768C71.9657 101.768 72.1363 101.853 72.307 102.024ZM93.121 78.664C93.121 77.64 93.441 76.808 94.081 76.168C94.7637 75.4853 95.5957 75.144 96.577 75.144C97.5583 75.144 98.369 75.4853 99.009 76.168C99.6917 76.808 100.033 77.64 100.033 78.664C100.033 79.6453 99.6917 80.4773 99.009 81.16C98.369 81.8427 97.5583 82.184 96.577 82.184C95.5957 82.184 94.7637 81.8427 94.081 81.16C93.441 80.4773 93.121 79.6453 93.121 78.664ZM94.209 109C93.7823 109 93.569 108.765 93.569 108.296V85.704C93.569 85.192 93.7823 84.936 94.209 84.936H94.529C96.1503 84.936 97.409 85.3627 98.305 86.216C99.201 87.0693 99.649 88.456 99.649 90.376V108.296C99.649 108.765 99.4143 109 98.945 109H94.209ZM116.766 109.64C112.883 109.64 110.067 108.509 108.318 106.248C106.569 103.987 105.694 101.021 105.694 97.352V85.704C105.694 85.192 105.907 84.936 106.334 84.936H106.654C108.318 84.936 109.598 85.3627 110.494 86.216C111.39 87.0693 111.838 88.456 111.838 90.376V98.12C111.838 100.168 112.307 101.661 113.246 102.6C114.185 103.539 115.358 104.008 116.766 104.008C118.217 104.008 119.433 103.581 120.414 102.728C121.395 101.832 121.886 100.317 121.886 98.184V85.704C121.886 85.192 122.121 84.936 122.59 84.936H122.91C124.574 84.936 125.833 85.3627 126.686 86.216C127.582 87.0693 128.03 88.456 128.03 90.376V97.736C128.03 101.363 127.134 104.264 125.342 106.44C123.55 108.573 120.691 109.64 116.766 109.64ZM133.432 102.024C134.413 102.835 135.437 103.475 136.504 103.944C137.613 104.413 138.936 104.648 140.472 104.648C143.075 104.648 144.376 103.816 144.376 102.152C144.376 101.427 143.971 100.851 143.16 100.424C142.392 99.9973 141.432 99.592 140.28 99.208C139.171 98.824 138.04 98.3547 136.888 97.8C135.736 97.2453 134.755 96.52 133.944 95.624C133.176 94.6853 132.792 93.4267 132.792 91.848C132.792 90.0987 133.219 88.6907 134.072 87.624C134.968 86.5147 136.12 85.704 137.528 85.192C138.979 84.68 140.515 84.424 142.136 84.424C144.141 84.424 145.805 84.744 147.128 85.384C148.237 85.8533 148.963 86.4293 149.304 87.112C149.645 87.752 149.645 88.6693 149.304 89.864L149.112 90.568C148.984 90.9093 148.813 91.08 148.6 91.08C148.472 91.08 148.365 91.0587 148.28 91.016C148.195 90.9307 148.067 90.8667 147.896 90.824C145.891 89.8427 143.928 89.352 142.008 89.352C141.155 89.352 140.429 89.5227 139.832 89.864C139.235 90.2053 138.936 90.7387 138.936 91.464C138.936 92.1893 139.32 92.7867 140.088 93.256C140.899 93.6827 141.859 94.088 142.968 94.472C144.12 94.856 145.272 95.3253 146.424 95.88C147.576 96.4347 148.536 97.16 149.304 98.056C150.115 98.952 150.52 100.147 150.52 101.64C150.52 104.029 149.667 105.971 147.96 107.464C146.253 108.915 143.992 109.64 141.176 109.64C139.384 109.64 137.805 109.341 136.44 108.744C135.117 108.104 134.072 107.272 133.304 106.248C132.536 105.224 132.152 104.157 132.152 103.048C132.152 102.195 132.408 101.768 132.92 101.768C133.091 101.768 133.261 101.853 133.432 102.024Z" fill="white"/>
</svg>
