<svg width="512" height="512" viewBox="0 0 512 512" fill="none" xmlns="http://www.w3.org/2000/svg">
<rect width="512" height="512" fill="#09090B"/>
<path d="M185.716 275.984C184.009 278.288 181.833 280.08 179.188 281.36C176.543 282.555 173.727 283.152 170.74 283.152C165.961 283.152 161.908 282 158.58 279.696C155.337 277.392 152.863 274.32 151.156 270.48C149.535 266.64 148.724 262.416 148.724 257.808C148.724 253.029 149.62 248.763 151.412 245.008C153.204 241.168 155.764 238.139 159.092 235.92C162.505 233.701 166.473 232.592 170.996 232.592C174.751 232.592 177.908 233.275 180.468 234.64C183.113 236.005 185.204 237.627 186.74 239.504C187.423 237.541 188.532 236.133 190.068 235.28C191.689 234.341 193.609 233.872 195.828 233.872H196.468C197.407 233.872 197.876 234.384 197.876 235.408V280.592C197.876 281.531 197.407 282 196.468 282H186.996C186.143 282 185.716 281.531 185.716 280.592V275.984ZM173.428 271.632C175.049 271.632 176.799 271.291 178.676 270.608C180.639 269.84 182.303 268.475 183.668 266.512C185.033 264.549 185.716 261.648 185.716 257.808C185.716 253.968 185.033 251.109 183.668 249.232C182.303 247.269 180.681 245.989 178.804 245.392C176.927 244.709 175.177 244.368 173.556 244.368C171.849 244.368 170.015 244.752 168.052 245.52C166.175 246.288 164.553 247.653 163.188 249.616C161.908 251.579 161.268 254.309 161.268 257.808C161.268 261.477 161.951 264.336 163.316 266.384C164.767 268.347 166.431 269.712 168.308 270.48C170.185 271.248 171.892 271.632 173.428 271.632ZM208.614 268.048C210.577 269.669 212.625 270.949 214.758 271.888C216.977 272.827 219.622 273.296 222.694 273.296C227.899 273.296 230.502 271.632 230.502 268.304C230.502 266.853 229.691 265.701 228.07 264.848C226.534 263.995 224.614 263.184 222.31 262.416C220.091 261.648 217.83 260.709 215.526 259.6C213.222 258.491 211.259 257.04 209.638 255.248C208.102 253.371 207.334 250.853 207.334 247.696C207.334 244.197 208.187 241.381 209.894 239.248C211.686 237.029 213.99 235.408 216.806 234.384C219.707 233.36 222.779 232.848 226.022 232.848C230.033 232.848 233.361 233.488 236.006 234.768C238.225 235.707 239.675 236.859 240.358 238.224C241.041 239.504 241.041 241.339 240.358 243.728L239.974 245.136C239.718 245.819 239.377 246.16 238.95 246.16C238.694 246.16 238.481 246.117 238.31 246.032C238.139 245.861 237.883 245.733 237.542 245.648C233.531 243.685 229.606 242.704 225.766 242.704C224.059 242.704 222.609 243.045 221.414 243.728C220.219 244.411 219.622 245.477 219.622 246.928C219.622 248.379 220.39 249.573 221.926 250.512C223.547 251.365 225.467 252.176 227.686 252.944C229.99 253.712 232.294 254.651 234.598 255.76C236.902 256.869 238.822 258.32 240.358 260.112C241.979 261.904 242.79 264.293 242.79 267.28C242.79 272.059 241.083 275.941 237.67 278.928C234.257 281.829 229.734 283.28 224.102 283.28C220.518 283.28 217.361 282.683 214.63 281.488C211.985 280.208 209.894 278.544 208.358 276.496C206.822 274.448 206.054 272.315 206.054 270.096C206.054 268.389 206.566 267.536 207.59 267.536C207.931 267.536 208.273 267.707 208.614 268.048ZM250.242 221.328C250.242 219.28 250.882 217.616 252.162 216.336C253.527 214.971 255.191 214.288 257.154 214.288C259.117 214.288 260.738 214.971 262.018 216.336C263.383 217.616 264.066 219.28 264.066 221.328C264.066 223.291 263.383 224.955 262.018 226.32C260.738 227.685 259.117 228.368 257.154 228.368C255.191 228.368 253.527 227.685 252.162 226.32C250.882 224.955 250.242 223.291 250.242 221.328ZM252.418 282C251.565 282 251.138 281.531 251.138 280.592V235.408C251.138 234.384 251.565 233.872 252.418 233.872H253.058C256.301 233.872 258.818 234.725 260.61 236.432C262.402 238.139 263.298 240.912 263.298 244.752V280.592C263.298 281.531 262.829 282 261.89 282H252.418ZM297.532 283.28C289.767 283.28 284.135 281.019 280.636 276.496C277.137 271.973 275.388 266.043 275.388 258.704V235.408C275.388 234.384 275.815 233.872 276.668 233.872H277.308C280.636 233.872 283.196 234.725 284.988 236.432C286.78 238.139 287.676 240.912 287.676 244.752V260.24C287.676 264.336 288.615 267.323 290.492 269.2C292.369 271.077 294.716 272.016 297.532 272.016C300.433 272.016 302.865 271.163 304.828 269.456C306.791 267.664 307.772 264.635 307.772 260.368V235.408C307.772 234.384 308.241 233.872 309.18 233.872H309.82C313.148 233.872 315.665 234.725 317.372 236.432C319.164 238.139 320.06 240.912 320.06 244.752V259.472C320.06 266.725 318.268 272.528 314.684 276.88C311.1 281.147 305.383 283.28 297.532 283.28ZM330.864 268.048C332.827 269.669 334.875 270.949 337.008 271.888C339.227 272.827 341.872 273.296 344.944 273.296C350.149 273.296 352.752 271.632 352.752 268.304C352.752 266.853 351.941 265.701 350.32 264.848C348.784 263.995 346.864 263.184 344.56 262.416C342.341 261.648 340.08 260.709 337.776 259.6C335.472 258.491 333.509 257.04 331.888 255.248C330.352 253.371 329.584 250.853 329.584 247.696C329.584 244.197 330.437 241.381 332.144 239.248C333.936 237.029 336.24 235.408 339.056 234.384C341.957 233.36 345.029 232.848 348.272 232.848C352.283 232.848 355.611 233.488 358.256 234.768C360.475 235.707 361.925 236.859 362.608 238.224C363.291 239.504 363.291 241.339 362.608 243.728L362.224 245.136C361.968 245.819 361.627 246.16 361.2 246.16C360.944 246.16 360.731 246.117 360.56 246.032C360.389 245.861 360.133 245.733 359.792 245.648C355.781 243.685 351.856 242.704 348.016 242.704C346.309 242.704 344.859 243.045 343.664 243.728C342.469 244.411 341.872 245.477 341.872 246.928C341.872 248.379 342.64 249.573 344.176 250.512C345.797 251.365 347.717 252.176 349.936 252.944C352.24 253.712 354.544 254.651 356.848 255.76C359.152 256.869 361.072 258.32 362.608 260.112C364.229 261.904 365.04 264.293 365.04 267.28C365.04 272.059 363.333 275.941 359.92 278.928C356.507 281.829 351.984 283.28 346.352 283.28C342.768 283.28 339.611 282.683 336.88 281.488C334.235 280.208 332.144 278.544 330.608 276.496C329.072 274.448 328.304 272.315 328.304 270.096C328.304 268.389 328.816 267.536 329.84 267.536C330.181 267.536 330.523 267.707 330.864 268.048Z" fill="white"/>
</svg>
