<svg width="32" height="32" viewBox="0 0 32 32" fill="none" xmlns="http://www.w3.org/2000/svg">
<rect width="32" height="32" fill="#09090B"/>
<path d="M9.41088 17.436C9.25088 17.652 9.04688 17.82 8.79888 17.94C8.55088 18.052 8.28688 18.108 8.00688 18.108C7.55888 18.108 7.17888 18 6.86688 17.784C6.56288 17.568 6.33088 17.28 6.17088 16.92C6.01888 16.56 5.94287 16.164 5.94287 15.732C5.94287 15.284 6.02688 14.884 6.19488 14.532C6.36288 14.172 6.60288 13.888 6.91488 13.68C7.23488 13.472 7.60688 13.368 8.03088 13.368C8.38288 13.368 8.67888 13.432 8.91888 13.56C9.16688 13.688 9.36288 13.84 9.50688 14.016C9.57088 13.832 9.67488 13.7 9.81888 13.62C9.97088 13.532 10.1509 13.488 10.3589 13.488H10.4189C10.5069 13.488 10.5509 13.536 10.5509 13.632V17.868C10.5509 17.956 10.5069 18 10.4189 18H9.53088C9.45088 18 9.41088 17.956 9.41088 17.868V17.436ZM8.25888 17.028C8.41088 17.028 8.57488 16.996 8.75088 16.932C8.93488 16.86 9.09088 16.732 9.21888 16.548C9.34688 16.364 9.41088 16.092 9.41088 15.732C9.41088 15.372 9.34688 15.104 9.21888 14.928C9.09088 14.744 8.93888 14.624 8.76288 14.568C8.58688 14.504 8.42288 14.472 8.27088 14.472C8.11088 14.472 7.93888 14.508 7.75488 14.58C7.57888 14.652 7.42688 14.78 7.29888 14.964C7.17888 15.148 7.11888 15.404 7.11888 15.732C7.11888 16.076 7.18288 16.344 7.31087 16.536C7.44688 16.72 7.60288 16.848 7.77888 16.92C7.95488 16.992 8.11488 17.028 8.25888 17.028ZM11.5576 16.692C11.7416 16.844 11.9336 16.964 12.1336 17.052C12.3416 17.14 12.5896 17.184 12.8776 17.184C13.3656 17.184 13.6096 17.028 13.6096 16.716C13.6096 16.58 13.5336 16.472 13.3816 16.392C13.2376 16.312 13.0576 16.236 12.8416 16.164C12.6336 16.092 12.4216 16.004 12.2056 15.9C11.9896 15.796 11.8056 15.66 11.6536 15.492C11.5096 15.316 11.4376 15.08 11.4376 14.784C11.4376 14.456 11.5176 14.192 11.6776 13.992C11.8456 13.784 12.0616 13.632 12.3256 13.536C12.5976 13.44 12.8856 13.392 13.1896 13.392C13.5656 13.392 13.8776 13.452 14.1256 13.572C14.3336 13.66 14.4696 13.768 14.5336 13.896C14.5976 14.016 14.5976 14.188 14.5336 14.412L14.4976 14.544C14.4736 14.608 14.4416 14.64 14.4016 14.64C14.3776 14.64 14.3576 14.636 14.3416 14.628C14.3256 14.612 14.3016 14.6 14.2696 14.592C13.8936 14.408 13.5256 14.316 13.1656 14.316C13.0056 14.316 12.8696 14.348 12.7576 14.412C12.6456 14.476 12.5896 14.576 12.5896 14.712C12.5896 14.848 12.6616 14.96 12.8056 15.048C12.9576 15.128 13.1376 15.204 13.3456 15.276C13.5616 15.348 13.7776 15.436 13.9936 15.54C14.2096 15.644 14.3896 15.78 14.5336 15.948C14.6856 16.116 14.7616 16.34 14.7616 16.62C14.7616 17.068 14.6016 17.432 14.2816 17.712C13.9616 17.984 13.5376 18.12 13.0096 18.12C12.6736 18.12 12.3776 18.064 12.1216 17.952C11.8736 17.832 11.6776 17.676 11.5336 17.484C11.3896 17.292 11.3176 17.092 11.3176 16.884C11.3176 16.724 11.3656 16.644 11.4616 16.644C11.4936 16.644 11.5256 16.66 11.5576 16.692ZM15.4602 12.312C15.4602 12.12 15.5202 11.964 15.6402 11.844C15.7682 11.716 15.9242 11.652 16.1082 11.652C16.2922 11.652 16.4442 11.716 16.5642 11.844C16.6922 11.964 16.7562 12.12 16.7562 12.312C16.7562 12.496 16.6922 12.652 16.5642 12.78C16.4442 12.908 16.2922 12.972 16.1082 12.972C15.9242 12.972 15.7682 12.908 15.6402 12.78C15.5202 12.652 15.4602 12.496 15.4602 12.312ZM15.6642 18C15.5842 18 15.5442 17.956 15.5442 17.868V13.632C15.5442 13.536 15.5842 13.488 15.6642 13.488H15.7242C16.0282 13.488 16.2642 13.568 16.4322 13.728C16.6002 13.888 16.6842 14.148 16.6842 14.508V17.868C16.6842 17.956 16.6402 18 16.5522 18H15.6642ZM19.8936 18.12C19.1656 18.12 18.6376 17.908 18.3096 17.484C17.9816 17.06 17.8176 16.504 17.8176 15.816V13.632C17.8176 13.536 17.8576 13.488 17.9376 13.488H17.9976C18.3096 13.488 18.5496 13.568 18.7176 13.728C18.8856 13.888 18.9696 14.148 18.9696 14.508V15.96C18.9696 16.344 19.0576 16.624 19.2336 16.8C19.4096 16.976 19.6296 17.064 19.8936 17.064C20.1656 17.064 20.3936 16.984 20.5776 16.824C20.7616 16.656 20.8536 16.372 20.8536 15.972V13.632C20.8536 13.536 20.8976 13.488 20.9856 13.488H21.0456C21.3576 13.488 21.5936 13.568 21.7536 13.728C21.9216 13.888 22.0056 14.148 22.0056 14.508V15.888C22.0056 16.568 21.8376 17.112 21.5016 17.52C21.1656 17.92 20.6296 18.12 19.8936 18.12ZM23.0185 16.692C23.2025 16.844 23.3945 16.964 23.5945 17.052C23.8025 17.14 24.0505 17.184 24.3385 17.184C24.8265 17.184 25.0705 17.028 25.0705 16.716C25.0705 16.58 24.9945 16.472 24.8425 16.392C24.6985 16.312 24.5185 16.236 24.3025 16.164C24.0945 16.092 23.8825 16.004 23.6665 15.9C23.4505 15.796 23.2665 15.66 23.1145 15.492C22.9705 15.316 22.8985 15.08 22.8985 14.784C22.8985 14.456 22.9785 14.192 23.1385 13.992C23.3065 13.784 23.5225 13.632 23.7865 13.536C24.0585 13.44 24.3465 13.392 24.6505 13.392C25.0265 13.392 25.3385 13.452 25.5865 13.572C25.7945 13.66 25.9305 13.768 25.9945 13.896C26.0585 14.016 26.0585 14.188 25.9945 14.412L25.9585 14.544C25.9345 14.608 25.9025 14.64 25.8625 14.64C25.8385 14.64 25.8185 14.636 25.8025 14.628C25.7865 14.612 25.7625 14.6 25.7305 14.592C25.3545 14.408 24.9865 14.316 24.6265 14.316C24.4665 14.316 24.3305 14.348 24.2185 14.412C24.1065 14.476 24.0505 14.576 24.0505 14.712C24.0505 14.848 24.1225 14.96 24.2665 15.048C24.4185 15.128 24.5985 15.204 24.8065 15.276C25.0225 15.348 25.2385 15.436 25.4545 15.54C25.6705 15.644 25.8505 15.78 25.9945 15.948C26.1465 16.116 26.2225 16.34 26.2225 16.62C26.2225 17.068 26.0625 17.432 25.7425 17.712C25.4225 17.984 24.9985 18.12 24.4705 18.12C24.1345 18.12 23.8385 18.064 23.5825 17.952C23.3345 17.832 23.1385 17.676 22.9945 17.484C22.8505 17.292 22.7785 17.092 22.7785 16.884C22.7785 16.724 22.8265 16.644 22.9225 16.644C22.9545 16.644 22.9865 16.66 23.0185 16.692Z" fill="white"/>
</svg>
